# xmcd
#
# Track frame offsets:
#	150
#	14137
#	28044
#	41595
#	54616
#	66981
#	80159
#	93930
#	108248
#	121032
#	134727
#	147416
#	160555
#	175148
#	188381
#	201214
#	213158
#	241202
#	255857
#	269459
#	282960
#	299223
#
# Disc length: 4182 seconds
#
# Revision: 0
# Processed by: cddbd v1.5.1PL2 Copyright (c) Steve Scherf et al.
# Submitted via: dBpowerAMP V4.0
#
DISCID=47105416
DTITLE=B. B. King - Hits and Roots 1950/1962
DYEAR=2006
DGENRE=Blues
TTITLE0=3 O'clock Blues
TTITLE1=You Know I Love You
TTITLE2=Woke Up This Morning
TTITLE3=Please Love Me
TTITLE4=Please Hurry Home
TTITLE5=When My Heart Beats Like A Hammer
TTITLE6=You Upset Me Baby
TTITLE7=Whole Lotta Love
TTITLE8=Every Day I Have The Blues
TTITLE9=Sneakin' Around
TTITLE10=Ten Long Years
TTITLE11=Bad Luck
TTITLE12=Sweet Little Angel
TTITLE13=Troubles, Troubles, Troubles
TTITLE14=I Want To Get Married
TTITLE15=Please Accept My Love
TTITLE16=Sweet Sixteen, Parts 1 and 2
TTITLE17=Got A right To Love My Baby
TTITLE18=Partin' Time
TTITLE19=Rock Me Baby
TTITLE20=Blue Shadows
TTITLE21=The Jungle
EXTD=
EXTT0=
EXTT1=
EXTT2=
EXTT3=
EXTT4=
EXTT5=
EXTT6=
EXTT7=
EXTT8=
EXTT9=
EXTT10=
EXTT11=
EXTT12=
EXTT13=
EXTT14=
EXTT15=
EXTT16=
EXTT17=
EXTT18=
EXTT19=
EXTT20=
EXTT21=
PLAYORDER=
